{
	"asset":{
		"generator":"Khronos glTF Blender I/O v4.0.44",
		"version":"2.0"
	},
	"scene":0,
	"scenes":[
		{
			"name":"Scene",
			"nodes":[
				0
			]
		}
	],
	"nodes":[
		{
			"mesh":0,
			"name":"defaultMaterial.003",
			"rotation":[
				-0.70710688829422,
				0,
				0,
				0.7071066498756409
			],
			"translation":[
				0.007146880961954594,
				-0.0010258906986564398,
				0.05166099593043327
			]
		}
	],
	"materials":[
		{
			"doubleSided":true,
			"name":"material",
			"normalTexture":{
				"index":0
			},
			"occlusionTexture":{
				"index":1
			},
			"pbrMetallicRoughness":{
				"baseColorTexture":{
					"index":2
				},
				"metallicRoughnessTexture":{
					"index":1
				}
			}
		}
	],
	"meshes":[
		{
			"name":"defaultMaterial.003",
			"primitives":[
				{
					"attributes":{
						"POSITION":0,
						"NORMAL":1,
						"TEXCOORD_0":2
					},
					"indices":3,
					"material":0
				}
			]
		}
	],
	"textures":[
		{
			"sampler":0,
			"source":0
		},
		{
			"sampler":0,
			"source":1
		},
		{
			"sampler":0,
			"source":2
		}
	],
	"images":[
		{
			"mimeType":"image/png",
			"name":"material_normal",
			"uri":"material_normal.png"
		},
		{
			"mimeType":"image/png",
			"name":"material_metallicRoughness",
			"uri":"material_metallicRoughness.png"
		},
		{
			"mimeType":"image/jpeg",
			"name":"material_baseColor",
			"uri":"material_baseColor.jpg"
		}
	],
	"accessors":[
		{
			"bufferView":0,
			"componentType":5126,
			"count":658,
			"max":[
				0.021578527987003326,
				0.043856050819158554,
				0.002713495399802923
			],
			"min":[
				-0.02386847324669361,
				-0.034345224499702454,
				-0.0027125044725835323
			],
			"type":"VEC3"
		},
		{
			"bufferView":1,
			"componentType":5126,
			"count":658,
			"type":"VEC3"
		},
		{
			"bufferView":2,
			"componentType":5126,
			"count":658,
			"type":"VEC2"
		},
		{
			"bufferView":3,
			"componentType":5123,
			"count":2397,
			"type":"SCALAR"
		}
	],
	"bufferViews":[
		{
			"buffer":0,
			"byteLength":7896,
			"byteOffset":0,
			"target":34962
		},
		{
			"buffer":0,
			"byteLength":7896,
			"byteOffset":7896,
			"target":34962
		},
		{
			"buffer":0,
			"byteLength":5264,
			"byteOffset":15792,
			"target":34962
		},
		{
			"buffer":0,
			"byteLength":4794,
			"byteOffset":21056,
			"target":34963
		}
	],
	"samplers":[
		{
			"magFilter":9729,
			"minFilter":9987
		}
	],
	"buffers":[
		{
			"byteLength":25852,
			"uri":"key%20piece%201.bin"
		}
	]
}
